# Blender v2.80 (sub 35) OBJ File: 'Tempel .blend'
# www.blender.org
mtllib mitt .mtl
o Cube.005_Cube.008
v 1.298354 -0.875130 2.282185
v 1.513643 0.070328 2.061906
v 1.298354 -0.875130 -2.282185
v 1.513643 0.070328 -2.061906
v 3.116564 -0.875130 3.518624
v 3.081442 0.070328 3.179003
v 3.116564 -0.875130 -3.518624
v 3.081442 0.070328 -3.179003
v 0.895132 -0.875130 -1.522338
v 0.895132 -0.875130 1.522338
v 1.149340 0.070328 1.375401
v 1.149340 0.070328 -1.375401
v 3.098859 0.070328 -1.522339
v 3.098859 0.070328 1.522339
v 0.720471 -0.875130 0.000000
v 0.991537 0.070328 0.000000
v 3.091190 0.070328 0.000000
v 6.146884 0.070328 -3.179004
v 6.509495 -0.875130 -3.518625
v 4.803153 -0.875130 -1.522339
v 4.803153 0.070328 1.522339
v 6.146884 0.070328 3.179004
v 6.509495 -0.875130 3.518625
v 4.803153 -0.875130 1.522339
v 4.589736 -0.875130 0.000000
v 4.803153 0.070328 -1.522339
v 4.589736 0.070328 0.000000
v 0.935742 -2.352467 1.556247
v 1.338965 -2.352467 2.316093
v 3.157175 -2.352467 -3.484716
v 1.338965 -2.352467 -2.248276
v 3.157175 -2.352467 3.552533
v 0.935742 -2.352467 -1.488430
v 0.761082 -2.352467 0.033908
v 4.843763 -2.352467 -1.488430
v 6.550105 -2.352467 -3.484716
v 6.187495 -1.407009 -3.145096
v 6.550105 -2.352467 3.552533
v 4.843763 -2.352467 1.556247
v 4.630347 -2.352467 0.033908
v 4.843763 -1.407009 -1.488430
vt 0.439856 0.787431
vt 0.415084 0.664138
vt 0.444237 0.659584
vt 0.471066 0.777637
vt 0.531879 0.616792
vt 0.585741 0.735324
vt 0.435448 0.518959
vt 0.393805 0.494590
vt 0.476826 0.258137
vt 0.513788 0.383341
vt 0.269938 0.455168
vt 0.361770 0.586429
vt 0.241481 0.573881
vt 0.273192 0.702801
vt 0.305482 0.732953
vt 0.171816 0.881609
vt 0.138626 0.852182
vt 0.360750 0.615909
vt 0.502374 0.578159
vt 0.470144 0.547096
vt 0.384125 0.644295
vt 0.762492 0.500513
vt 0.625150 0.482968
vt 0.792989 0.252145
vt 0.885862 0.311581
vt 0.537365 0.964290
vt 0.505728 0.975171
vt 0.563804 0.440232
vt 0.235503 0.606013
vt 0.339205 0.761346
vt 0.732267 0.331210
vt 0.689685 0.297881
vt 0.829848 0.113900
vt 0.869559 0.143327
vt 0.652847 0.924833
vt 0.650148 0.262583
vt 0.558912 0.162417
vt 0.610595 0.766336
vt 0.865845 0.637635
vt 0.987444 0.871199
vt 0.732195 0.999901
vt 0.240059 0.437565
vt 0.331950 0.175851
vt 0.692649 0.000099
vt 0.791097 0.083508
vt 0.048660 0.529477
vt 0.074241 0.410319
vt 0.205221 0.911465
vt 0.864074 0.394066
vt 0.987444 0.205133
vt 0.041686 0.562144
vt 0.000099 0.349793
vt 0.091991 0.088079
vn -0.8436 0.2964 -0.4477
vn -0.5470 0.2852 -0.7870
vn 0.0000 1.0000 -0.0000
vn -0.5470 0.2852 0.7870
vn -0.9932 -0.0247 0.1139
vn 0.7761 0.0358 0.6295
vn -0.8828 -0.0350 -0.4685
vn -0.8436 0.2964 0.4477
vn -0.9555 0.2739 -0.1096
vn -0.9555 0.2739 0.1096
vn 0.9899 0.0304 0.1388
vn -0.5620 -0.0344 -0.8264
vn 0.7672 0.0321 -0.6406
vn -0.0000 -0.0229 -0.9997
vn 0.9903 0.0000 -0.1388
vn 0.9903 0.0000 0.1388
vn -0.0000 0.3381 0.9411
vn 0.7601 0.0060 -0.6497
vn -0.0000 0.3381 -0.9411
vn -0.5623 0.0035 0.8269
vn 0.9900 0.0240 -0.1388
vn -0.9930 -0.0299 -0.1139
vn 0.7312 0.0357 0.6812
vn -0.6409 0.0000 0.7676
vn -0.8832 -0.0135 0.4687
vn -0.0000 0.0229 0.9997
usemtl Material.005
s off
f 9/1/1 12/2/1 4/3/1 3/4/1
f 3/4/2 4/3/2 8/5/2 7/6/2
f 14/7/3 6/8/3 22/9/3 21/10/3
f 5/11/4 6/8/4 2/12/4 1/13/4
f 10/14/5 15/15/5 34/16/5 28/17/5
f 14/7/3 11/18/3 2/12/3 6/8/3
f 8/5/3 4/3/3 12/2/3 13/19/3
f 17/20/3 16/21/3 11/18/3 14/7/3
f 18/22/6 26/23/6 41/24/6 37/25/6
f 9/1/7 3/4/7 31/26/7 33/27/7
f 8/5/3 13/19/3 26/23/3 18/22/3
f 13/19/3 17/20/3 27/28/3 26/23/3
f 1/13/8 2/12/8 11/18/8 10/29/8
f 15/15/9 16/21/9 12/2/9 9/30/9
f 10/14/10 11/18/10 16/21/10 15/15/10
f 20/31/11 25/32/11 40/33/11 35/34/11
f 3/4/12 7/6/12 30/35/12 31/26/12
f 13/19/3 12/2/3 16/21/3 17/20/3
f 24/36/13 21/10/13 22/9/13 23/37/13
f 7/38/14 19/39/14 36/40/14 30/41/14
f 25/32/15 27/28/15 21/10/15 24/36/15
f 20/31/16 26/23/16 27/28/16 25/32/16
f 17/20/3 14/7/3 21/10/3 27/28/3
f 6/8/17 5/42/17 23/43/17 22/9/17
f 24/36/18 23/37/18 38/44/18 39/45/18
f 7/38/19 8/5/19 18/22/19 19/39/19
f 5/11/20 1/13/20 29/46/20 32/47/20
f 25/32/21 24/36/21 39/45/21 40/33/21
f 15/15/22 9/30/22 33/48/22 34/16/22
f 19/49/23 18/22/23 37/25/23 36/50/23
f 26/23/24 20/31/24 35/34/24 41/24/24
f 1/13/25 10/29/25 28/51/25 29/46/25
f 23/43/26 5/42/26 32/52/26 38/53/26
