# Blender v2.80 (sub 35) OBJ File: 'Tempel .blend'
# www.blender.org
mtllib Tempel .mtl
o Cube
v 1.375187 0.011421 -1.000000
v 1.375187 0.011421 1.000000
v 1.267590 0.011421 -0.500000
v 0.677064 -0.001327 1.000000
v -0.624813 -0.821300 1.000000
v -0.624813 -0.621852 1.000000
v -0.172241 -0.599997 1.000000
v -0.172241 -0.403187 1.000000
v 0.260875 -0.384409 1.000000
v 0.260875 -0.198424 1.000000
v 0.677064 -0.180305 1.000000
v 0.677064 -0.180305 -1.000000
v 0.260875 -0.198424 -1.000000
v 0.260875 -0.384409 -1.000000
v -0.172241 -0.403187 -1.000000
v -0.172241 -0.599997 -1.000000
v -0.624813 -0.621852 -1.000000
v -0.624813 -0.821300 -1.000000
v 0.677064 -0.001327 -1.000000
v 1.247642 0.011421 0.000000
v 1.267590 0.011421 0.500000
v -0.732410 -0.821300 0.500000
v -0.752358 -0.821300 0.000000
v -0.732410 -0.821300 -0.500000
v -0.732410 -0.621852 0.500000
v -0.752358 -0.621852 0.000000
v -0.732410 -0.621852 -0.500000
v -0.279838 -0.599997 0.500000
v -0.299786 -0.599997 0.000000
v -0.279838 -0.599997 -0.500000
v -0.279838 -0.403187 0.500000
v -0.299786 -0.403187 0.000000
v -0.279838 -0.403187 -0.500000
v 0.153278 -0.384409 0.500000
v 0.133331 -0.384409 0.000000
v 0.153278 -0.384409 -0.500000
v 0.153278 -0.198424 0.500000
v 0.133331 -0.198424 0.000000
v 0.153278 -0.198424 -0.500000
v 0.569467 -0.180305 0.500000
v 0.549520 -0.180305 0.000000
v 0.569467 -0.180305 -0.500000
v 0.569467 -0.001327 0.500000
v 0.549520 -0.001327 0.000000
v 0.569467 -0.001327 -0.500000
vt 0.971290 0.181583
vt 0.725311 0.191007
vt 0.749453 0.014001
vt 0.999914 0.000086
vt 0.658173 0.543157
vt 0.722507 0.538854
vt 0.745088 0.720646
vt 0.679068 0.728450
vt 0.000086 0.513886
vt 0.068840 0.512763
vt 0.081125 0.688281
vt 0.010190 0.692790
vt 0.224233 0.527607
vt 0.238312 0.708883
vt 0.293415 0.525169
vt 0.309188 0.703068
vt 0.444679 0.537141
vt 0.461999 0.720632
vt 0.510922 0.533769
vt 0.529856 0.713924
vt 0.542728 0.015779
vt 0.687898 0.005839
vt 0.662995 0.185435
vt 0.517855 0.189719
vt 0.656102 0.362950
vt 0.509478 0.360316
vt 0.479969 0.006879
vt 0.453957 0.183434
vt 0.444993 0.358736
vt 0.331378 0.015336
vt 0.304904 0.186138
vt 0.294381 0.354096
vt 0.266129 0.005244
vt 0.238395 0.178761
vt 0.227084 0.351518
vt 0.112986 0.011886
vt 0.085333 0.179619
vt 0.071607 0.344385
vt 0.046741 0.001190
vt 0.019313 0.171061
vt 0.003581 0.340571
vt 0.718903 0.363737
vt 0.999914 0.735176
vt 0.971058 0.550458
vt 0.968654 0.365361
vn -0.0183 0.9998 0.0039
vn -0.9776 0.0000 -0.2104
vn -0.0482 0.9988 -0.0104
vn -0.0433 0.9990 -0.0093
vn -0.0435 0.9990 -0.0094
vn -0.0435 0.9990 0.0094
vn -0.0435 0.9991 0.0017
vn -0.0435 0.9991 -0.0017
vn -0.9776 0.0000 0.2104
vn -0.9992 0.0000 0.0399
vn -0.9992 0.0000 -0.0399
vn -0.0433 0.9990 0.0093
vn -0.0433 0.9991 0.0017
vn -0.0433 0.9991 -0.0017
vn -0.0482 0.9988 0.0104
vn -0.0482 0.9988 0.0019
vn -0.0482 0.9988 -0.0019
vn -0.0183 0.9998 -0.0039
vn -0.0183 0.9998 -0.0007
vn -0.0183 0.9998 0.0007
usemtl Material
s off
f 21/1/1 43/2/1 4/3/1 2/4/1
f 42/5/2 45/6/2 19/7/2 12/8/2
f 24/9/2 27/10/2 17/11/2 18/12/2
f 27/10/3 30/13/3 16/14/3 17/11/3
f 30/13/2 33/15/2 15/16/2 16/14/2
f 33/15/4 36/17/4 14/18/4 15/16/4
f 36/17/2 39/19/2 13/20/2 14/18/2
f 39/19/5 42/5/5 12/8/5 13/20/5
f 10/21/6 11/22/6 40/23/6 37/24/6
f 37/24/7 40/23/7 41/25/7 38/26/7
f 38/26/8 41/25/8 42/5/8 39/19/8
f 9/27/9 10/21/9 37/24/9 34/28/9
f 34/28/10 37/24/10 38/26/10 35/29/10
f 35/29/11 38/26/11 39/19/11 36/17/11
f 8/30/12 9/27/12 34/28/12 31/31/12
f 31/31/13 34/28/13 35/29/13 32/32/13
f 32/32/14 35/29/14 36/17/14 33/15/14
f 7/33/9 8/30/9 31/31/9 28/34/9
f 28/34/10 31/31/10 32/32/10 29/35/10
f 29/35/11 32/32/11 33/15/11 30/13/11
f 6/36/15 7/33/15 28/34/15 25/37/15
f 25/37/16 28/34/16 29/35/16 26/38/16
f 26/38/17 29/35/17 30/13/17 27/10/17
f 5/39/9 6/36/9 25/37/9 22/40/9
f 22/40/10 25/37/10 26/38/10 23/41/10
f 23/41/11 26/38/11 27/10/11 24/9/11
f 11/22/9 4/3/9 43/2/9 40/23/9
f 40/23/10 43/2/10 44/42/10 41/25/10
f 41/25/11 44/42/11 45/6/11 42/5/11
f 1/43/18 19/7/18 45/6/18 3/44/18
f 3/44/19 45/6/19 44/42/19 20/45/19
f 20/45/20 44/42/20 43/2/20 21/1/20
o Cube.001
v -0.814075 -0.830469 1.240862
v -0.814075 -0.362233 1.240862
v -0.814075 -0.830469 0.969117
v -0.814075 -0.362233 0.969117
v 1.763834 -0.830469 1.240862
v 1.763834 0.365539 1.240862
v 1.763834 -0.830469 0.969117
v 1.763834 0.365539 0.969117
v 1.232917 -0.830469 0.969117
v 1.232917 0.367223 0.969117
v 1.232917 -0.830469 1.240862
v 1.232917 0.367223 1.240862
v -0.326032 -0.830469 0.969117
v -0.326032 -0.359317 1.240862
v -0.326032 -0.359317 0.969117
v -0.326032 -0.830469 1.240862
v 1.763834 0.365539 1.535275
v 1.763834 -0.830469 1.535275
v 1.232917 -0.830469 1.535275
v 1.232917 0.367223 1.535275
v 1.399949 0.496466 1.069456
v 1.740133 0.495387 1.069456
v 1.740133 0.495387 1.243576
v 1.399949 0.496466 1.243576
v 1.740133 0.495387 1.432220
v 1.399949 0.496466 1.432220
v 1.401008 0.830230 1.069456
v 1.401008 0.830230 1.243576
v 1.401008 0.830230 1.432220
v 1.667910 0.829383 1.069456
v 1.741013 0.772868 1.069456
v 1.667910 0.829383 1.243576
v 1.741013 0.772868 1.243576
v 1.741013 0.772868 1.432220
v 1.667910 0.829383 1.432220
v 1.400479 0.663348 1.432220
v 1.400479 0.663348 1.243576
v 1.400479 0.663348 1.069456
v 1.106096 0.666426 1.357846
v 1.106411 0.765781 1.357846
v 1.106411 0.765781 1.141872
v 1.106411 0.765781 1.245535
v 1.106096 0.666426 1.141872
v 1.106096 0.666426 1.245535
v 1.106635 0.574403 1.142693
v 1.106635 0.574403 1.245558
v 1.106635 0.574403 1.357002
v 1.106914 0.635185 1.245558
v 1.106914 0.635185 1.357002
v 1.106914 0.635185 1.142693
vt 0.545518 0.651857
vt 0.616111 0.710748
vt 0.493471 0.857756
vt 0.422879 0.798865
vt 0.247641 0.704907
vt 0.067074 0.554272
vt 0.093021 0.523685
vt 0.273334 0.674109
vt 0.215661 0.376677
vt 0.395973 0.527101
vt 0.762850 0.087327
vt 0.691818 0.028070
vt 0.715876 0.000125
vt 0.786469 0.059016
vt 0.304132 0.699802
vt 0.426772 0.552794
vt 0.521786 0.881377
vt 0.644425 0.734370
vt 0.786718 0.718200
vt 0.786718 0.526754
vt 0.815058 0.524842
vt 0.815058 0.647510
vt 0.394567 0.775246
vt 0.517207 0.628239
vt 0.348530 0.217407
vt 0.528843 0.367831
vt 0.172196 0.795342
vt 0.101164 0.736085
vt 0.148578 0.823653
vt 0.077986 0.764763
vt 0.663829 0.999875
vt 0.786469 0.852868
vt 0.687406 0.177762
vt 0.506839 0.027126
vt 0.373970 0.186397
vt 0.554536 0.337032
vt 0.559641 0.393524
vt 0.929223 0.000125
vt 0.928723 0.040232
vt 0.853742 0.026888
vt 0.854062 0.001189
vt 0.215563 0.201030
vt 0.130427 0.303082
vt 0.111652 0.285621
vt 0.162338 0.224864
vt 0.197261 0.358837
vt 0.282397 0.256785
vt 0.118681 0.453032
vt 0.929176 0.278979
vt 0.929222 0.319089
vt 0.852277 0.317178
vt 0.852247 0.291477
vt 0.786718 0.319338
vt 0.815058 0.391941
vt 0.076847 0.418133
vt 0.155428 0.323938
vt 0.240564 0.221886
vt 0.067330 0.410193
vt 0.051846 0.397276
vt 0.145911 0.315998
vt 0.797798 0.316858
vt 0.786742 0.311257
vt 0.786718 0.291093
vt 0.819483 0.291285
vt 0.799733 0.234247
vt 0.819239 0.234361
vt 0.231046 0.213946
vt 0.820977 0.026710
vt 0.788213 0.026532
vt 0.788464 0.006369
vt 0.799583 0.000893
vt 0.838162 0.082964
vt 0.826229 0.082897
vt 0.802220 0.286738
vt 0.802971 0.153839
vt 0.825819 0.155364
vt 0.825376 0.233876
vt 0.096673 0.273125
vt 0.147360 0.212368
vt 0.049890 0.329205
vt 0.064869 0.341701
vt 0.078706 0.259934
vt 0.163842 0.157882
vt 0.000125 0.354128
vt 0.820098 0.082360
vt 0.800591 0.082254
vt 0.837753 0.155431
vt 0.837309 0.233944
vt 0.841986 0.523446
vt 0.841986 0.595914
vt 0.803664 0.031172
vt 0.841986 0.444932
vn -1.0000 0.0000 0.0000
vn 0.0000 0.0000 -1.0000
vn 1.0000 0.0000 0.0000
vn 0.0000 0.0000 1.0000
vn 0.0000 -1.0000 0.0000
vn -0.0060 1.0000 0.0000
vn -0.6120 0.7909 0.0000
vn -0.4224 0.9064 0.0000
vn 0.0019 0.6117 -0.7911
vn -0.2137 0.9769 0.0000
vn 0.9837 0.1796 0.0000
vn 0.0020 0.6219 0.7831
vn 1.0000 -0.0032 0.0000
vn 0.0032 1.0000 0.0000
vn -0.2449 0.0008 0.9695
vn 0.6116 0.7911 0.0000
vn -0.2421 0.0009 -0.9703
vn -0.0955 0.9954 0.0000
vn -1.0000 0.0032 0.0000
vn -0.0105 -0.9999 0.0000
vn -0.2389 0.0008 -0.9711
vn -1.0000 0.0046 0.0000
vn -0.2482 0.0009 0.9687
vn -0.2568 -0.9665 0.0000
usemtl Material.003
s off
f 46/46/21 47/47/21 49/48/21 48/49/21
f 54/50/22 55/51/22 53/52/22 52/53/22
f 52/53/23 53/52/23 51/54/23 50/55/23
f 61/56/24 59/57/24 47/58/24 46/59/24
f 54/60/25 52/53/25 50/55/25 56/61/25
f 60/62/26 49/48/26 47/47/26 59/63/26
f 55/64/27 57/65/27 69/66/27 66/67/27
f 58/68/25 54/60/25 56/61/25 61/69/25
f 50/55/23 51/54/23 62/70/23 63/71/23
f 58/72/22 60/73/22 55/51/22 54/50/22
f 48/74/22 49/75/22 60/73/22 58/72/22
f 48/49/25 58/68/25 61/69/25 46/46/25
f 55/76/28 60/62/28 59/63/28 57/77/28
f 56/78/24 57/79/24 59/57/24 61/56/24
f 63/71/24 62/70/24 65/80/24 64/81/24
f 57/79/21 56/78/21 64/81/21 65/80/21
f 56/61/25 50/55/25 63/71/25 64/82/25
f 53/83/29 55/84/29 66/85/29 67/86/29
f 74/87/30 73/88/30 87/89/30 85/90/30
f 62/70/31 51/54/31 68/91/31 70/92/31
f 51/54/31 53/52/31 67/93/31 68/91/31
f 65/94/32 62/95/32 70/96/32 71/97/32
f 57/65/27 65/98/27 71/99/27 69/66/27
f 68/91/33 67/93/33 76/100/33 78/101/33
f 70/92/33 68/91/33 78/101/33 79/102/33
f 75/103/34 72/104/34 73/88/34 77/105/34
f 71/97/24 70/96/24 79/106/24 80/107/24 74/108/24 81/109/24
f 81/109/35 74/108/35 85/110/35 84/111/35
f 77/105/34 73/88/34 74/87/34 80/112/34
f 75/103/36 77/105/36 78/101/36 76/100/36
f 77/105/36 80/112/36 79/102/36 78/101/36
f 67/86/22 66/85/22 83/113/22 72/114/22 75/115/22 76/116/22
f 83/113/37 66/85/37 90/117/37 95/118/37
f 81/119/38 82/120/38 93/121/38 94/122/38
f 89/123/39 84/124/39 85/90/39 87/89/39
f 88/125/39 89/123/39 87/89/39 86/126/39
f 82/127/40 81/128/40 84/124/40 89/123/40
f 73/88/30 72/104/30 86/126/30 87/89/30
f 83/129/40 82/127/40 89/123/40 88/125/40
f 72/114/41 83/113/41 88/130/41 86/131/41
f 90/117/42 91/132/42 93/121/42 95/118/42
f 91/132/42 92/133/42 94/122/42 93/121/42
f 71/97/43 81/109/43 94/122/43 92/133/43
f 66/67/44 69/66/44 91/134/44 90/135/44
f 82/120/38 83/136/38 95/118/38 93/121/38
f 69/66/44 71/99/44 92/137/44 91/134/44
o Cube.005_Cube.008
v 1.298354 -0.875130 2.282185
v 1.513643 0.070328 2.061906
v 1.298354 -0.875130 -2.282185
v 1.513643 0.070328 -2.061906
v 3.116564 -0.875130 3.518624
v 3.081442 0.070328 3.179003
v 3.116564 -0.875130 -3.518624
v 3.081442 0.070328 -3.179003
v 0.895132 -0.875130 -1.522338
v 0.895132 -0.875130 1.522338
v 1.149340 0.070328 1.375401
v 1.149340 0.070328 -1.375401
v 3.098859 0.070328 -1.522339
v 3.098859 0.070328 1.522339
v 0.720471 -0.875130 0.000000
v 0.991537 0.070328 0.000000
v 3.091190 0.070328 0.000000
v 6.146884 0.070328 -3.179004
v 6.509495 -0.875130 -3.518625
v 4.803153 -0.875130 -1.522339
v 4.803153 0.070328 1.522339
v 6.146884 0.070328 3.179004
v 6.509495 -0.875130 3.518625
v 4.803153 -0.875130 1.522339
v 4.589736 -0.875130 0.000000
v 4.803153 0.070328 -1.522339
v 4.589736 0.070328 0.000000
v 0.935742 -2.352467 1.556247
v 1.338965 -2.352467 2.316093
v 3.157175 -2.352467 -3.484716
v 1.338965 -2.352467 -2.248276
v 3.157175 -2.352467 3.552533
v 0.935742 -2.352467 -1.488430
v 0.761082 -2.352467 0.033908
v 4.843763 -2.352467 -1.488430
v 6.550105 -2.352467 -3.484716
v 6.187495 -1.407009 -3.145096
v 6.550105 -2.352467 3.552533
v 4.843763 -2.352467 1.556247
v 4.630347 -2.352467 0.033908
v 4.843763 -1.407009 -1.488430
vt 0.439856 0.787431
vt 0.415084 0.664138
vt 0.444237 0.659584
vt 0.471066 0.777637
vt 0.531879 0.616792
vt 0.585741 0.735324
vt 0.435448 0.518959
vt 0.393805 0.494590
vt 0.476826 0.258137
vt 0.513788 0.383341
vt 0.269938 0.455168
vt 0.361770 0.586429
vt 0.241481 0.573881
vt 0.273192 0.702801
vt 0.305482 0.732953
vt 0.171816 0.881609
vt 0.138626 0.852182
vt 0.360750 0.615909
vt 0.502374 0.578159
vt 0.470144 0.547096
vt 0.384125 0.644295
vt 0.762492 0.500513
vt 0.625150 0.482968
vt 0.792989 0.252145
vt 0.885862 0.311581
vt 0.537365 0.964290
vt 0.505728 0.975171
vt 0.563804 0.440232
vt 0.235503 0.606013
vt 0.339205 0.761346
vt 0.732267 0.331210
vt 0.689685 0.297881
vt 0.829848 0.113900
vt 0.869559 0.143327
vt 0.652847 0.924833
vt 0.650148 0.262583
vt 0.558912 0.162417
vt 0.610595 0.766336
vt 0.865845 0.637635
vt 0.987444 0.871199
vt 0.732195 0.999901
vt 0.240059 0.437565
vt 0.331950 0.175851
vt 0.692649 0.000099
vt 0.791097 0.083508
vt 0.048660 0.529477
vt 0.074241 0.410319
vt 0.205221 0.911465
vt 0.864074 0.394066
vt 0.987444 0.205133
vt 0.041686 0.562144
vt 0.000099 0.349793
vt 0.091991 0.088079
vn -0.8436 0.2964 -0.4477
vn -0.5470 0.2852 -0.7870
vn 0.0000 1.0000 -0.0000
vn -0.5470 0.2852 0.7870
vn -0.9932 -0.0247 0.1139
vn 0.7761 0.0358 0.6295
vn -0.8828 -0.0350 -0.4685
vn -0.8436 0.2964 0.4477
vn -0.9555 0.2739 -0.1096
vn -0.9555 0.2739 0.1096
vn 0.9899 0.0304 0.1388
vn -0.5620 -0.0344 -0.8264
vn 0.7672 0.0321 -0.6406
vn -0.0000 -0.0229 -0.9997
vn 0.9903 0.0000 -0.1388
vn 0.9903 0.0000 0.1388
vn -0.0000 0.3381 0.9411
vn 0.7601 0.0060 -0.6497
vn -0.0000 0.3381 -0.9411
vn -0.5623 0.0035 0.8269
vn 0.9900 0.0240 -0.1388
vn -0.9930 -0.0299 -0.1139
vn 0.7312 0.0357 0.6812
vn -0.6409 0.0000 0.7676
vn -0.8832 -0.0135 0.4687
vn -0.0000 0.0229 0.9997
usemtl Material.005
s off
f 104/138/45 107/139/45 99/140/45 98/141/45
f 98/141/46 99/140/46 103/142/46 102/143/46
f 109/144/47 101/145/47 117/146/47 116/147/47
f 100/148/48 101/145/48 97/149/48 96/150/48
f 105/151/49 110/152/49 129/153/49 123/154/49
f 109/144/47 106/155/47 97/149/47 101/145/47
f 103/142/47 99/140/47 107/139/47 108/156/47
f 112/157/47 111/158/47 106/155/47 109/144/47
f 113/159/50 121/160/50 136/161/50 132/162/50
f 104/138/51 98/141/51 126/163/51 128/164/51
f 103/142/47 108/156/47 121/160/47 113/159/47
f 108/156/47 112/157/47 122/165/47 121/160/47
f 96/150/52 97/149/52 106/155/52 105/166/52
f 110/152/53 111/158/53 107/139/53 104/167/53
f 105/151/54 106/155/54 111/158/54 110/152/54
f 115/168/55 120/169/55 135/170/55 130/171/55
f 98/141/56 102/143/56 125/172/56 126/163/56
f 108/156/47 107/139/47 111/158/47 112/157/47
f 119/173/57 116/147/57 117/146/57 118/174/57
f 102/175/58 114/176/58 131/177/58 125/178/58
f 120/169/59 122/165/59 116/147/59 119/173/59
f 115/168/60 121/160/60 122/165/60 120/169/60
f 112/157/47 109/144/47 116/147/47 122/165/47
f 101/145/61 100/179/61 118/180/61 117/146/61
f 119/173/62 118/174/62 133/181/62 134/182/62
f 102/175/63 103/142/63 113/159/63 114/176/63
f 100/148/64 96/150/64 124/183/64 127/184/64
f 120/169/65 119/173/65 134/182/65 135/170/65
f 110/152/66 104/167/66 128/185/66 129/153/66
f 114/186/67 113/159/67 132/162/67 131/187/67
f 121/160/68 115/168/68 130/171/68 136/161/68
f 96/150/69 105/166/69 123/188/69 124/183/69
f 118/180/70 100/179/70 127/189/70 133/190/70
o Cube.004_Cube.002
v -0.814075 -0.830469 -1.220749
v -0.814075 -0.362233 -1.220749
v -0.814075 -0.830469 -0.949005
v -0.814075 -0.362233 -0.949005
v 1.763834 -0.830469 -1.220749
v 1.763834 0.365539 -1.220749
v 1.763834 -0.830469 -0.949005
v 1.763834 0.365539 -0.949005
v 1.232917 -0.830469 -0.949005
v 1.232917 0.367223 -0.949005
v 1.232917 -0.830469 -1.220749
v 1.232917 0.367223 -1.220749
v -0.326032 -0.830469 -0.949005
v -0.326032 -0.359317 -1.220749
v -0.326032 -0.359317 -0.949005
v -0.326032 -0.830469 -1.220749
v 1.763834 0.365539 -1.515162
v 1.763834 -0.830469 -1.515162
v 1.232917 -0.830469 -1.515162
v 1.232917 0.367223 -1.515162
v 1.399949 0.496466 -1.049344
v 1.740133 0.495387 -1.049344
v 1.740133 0.495387 -1.223464
v 1.399949 0.496466 -1.223464
v 1.740133 0.495387 -1.412108
v 1.399949 0.496466 -1.412108
v 1.401008 0.830230 -1.049344
v 1.401008 0.830230 -1.223464
v 1.401008 0.830230 -1.412108
v 1.667910 0.829383 -1.049344
v 1.741013 0.772868 -1.049344
v 1.667910 0.829383 -1.223464
v 1.741013 0.772868 -1.223464
v 1.741013 0.772868 -1.412108
v 1.667910 0.829383 -1.412108
v 1.400479 0.663348 -1.412108
v 1.400479 0.663348 -1.223464
v 1.400479 0.663348 -1.049344
v 1.106096 0.666426 -1.337734
v 1.106411 0.765781 -1.337734
v 1.106411 0.765781 -1.121760
v 1.106411 0.765781 -1.225423
v 1.106096 0.666426 -1.121760
v 1.106096 0.666426 -1.225423
v 1.106635 0.574403 -1.122581
v 1.106635 0.574403 -1.225446
v 1.106635 0.574403 -1.336890
v 1.106914 0.635185 -1.225446
v 1.106914 0.635185 -1.336890
v 1.106914 0.635185 -1.122581
vt 0.545518 0.651857
vt 0.422879 0.798865
vt 0.493471 0.857756
vt 0.616111 0.710748
vt 0.247641 0.704907
vt 0.273334 0.674109
vt 0.093021 0.523685
vt 0.067074 0.554272
vt 0.395973 0.527101
vt 0.215661 0.376677
vt 0.762850 0.087327
vt 0.786469 0.059016
vt 0.715876 0.000125
vt 0.691818 0.028070
vt 0.304132 0.699802
vt 0.426772 0.552794
vt 0.521786 0.881377
vt 0.644425 0.734370
vt 0.786718 0.718200
vt 0.815058 0.647510
vt 0.815058 0.524842
vt 0.786718 0.526754
vt 0.394567 0.775246
vt 0.517207 0.628239
vt 0.528843 0.367831
vt 0.348530 0.217407
vt 0.172196 0.795342
vt 0.101164 0.736085
vt 0.148578 0.823653
vt 0.077986 0.764763
vt 0.663829 0.999875
vt 0.786469 0.852868
vt 0.687406 0.177762
vt 0.506839 0.027126
vt 0.554536 0.337032
vt 0.373970 0.186397
vt 0.559641 0.393524
vt 0.929223 0.000125
vt 0.854062 0.001189
vt 0.853742 0.026888
vt 0.928723 0.040232
vt 0.215563 0.201030
vt 0.162338 0.224864
vt 0.111652 0.285621
vt 0.130427 0.303082
vt 0.282397 0.256785
vt 0.197261 0.358837
vt 0.118681 0.453032
vt 0.929176 0.278979
vt 0.852247 0.291477
vt 0.852277 0.317178
vt 0.929222 0.319089
vt 0.815058 0.391941
vt 0.786718 0.319338
vt 0.155428 0.323938
vt 0.076847 0.418133
vt 0.240564 0.221886
vt 0.067330 0.410193
vt 0.145911 0.315998
vt 0.051846 0.397276
vt 0.819483 0.291285
vt 0.786718 0.291093
vt 0.786742 0.311257
vt 0.797798 0.316858
vt 0.819239 0.234361
vt 0.799733 0.234247
vt 0.231046 0.213946
vt 0.799583 0.000893
vt 0.788464 0.006369
vt 0.788213 0.026532
vt 0.820977 0.026710
vt 0.826229 0.082897
vt 0.838162 0.082964
vt 0.802220 0.286738
vt 0.825376 0.233876
vt 0.825819 0.155364
vt 0.802971 0.153839
vt 0.096673 0.273125
vt 0.147360 0.212368
vt 0.049890 0.329205
vt 0.064869 0.341701
vt 0.078706 0.259934
vt 0.163842 0.157882
vt 0.000125 0.354128
vt 0.800591 0.082254
vt 0.820098 0.082360
vt 0.837753 0.155431
vt 0.837309 0.233944
vt 0.841986 0.595914
vt 0.841986 0.523446
vt 0.803664 0.031172
vt 0.841986 0.444932
vn -1.0000 0.0000 0.0000
vn 0.0000 0.0000 1.0000
vn 1.0000 0.0000 0.0000
vn -0.0000 0.0000 -1.0000
vn 0.0000 -1.0000 0.0000
vn -0.0060 1.0000 0.0000
vn -0.6120 0.7909 0.0000
vn -0.4224 0.9064 0.0000
vn 0.0019 0.6117 0.7911
vn -0.2137 0.9769 0.0000
vn 0.9837 0.1796 0.0000
vn 0.0020 0.6219 -0.7831
vn 1.0000 -0.0032 0.0000
vn 0.0032 1.0000 0.0000
vn -0.2449 0.0008 -0.9695
vn 0.6116 0.7911 0.0000
vn -0.2421 0.0009 0.9703
vn -0.0955 0.9954 0.0000
vn -1.0000 0.0032 0.0000
vn -0.0105 -0.9999 0.0000
vn -0.2389 0.0008 0.9711
vn -1.0000 0.0046 0.0000
vn -0.2482 0.0009 -0.9687
vn -0.2568 -0.9665 0.0000
usemtl Material.003
s off
f 137/191/71 139/192/71 140/193/71 138/194/71
f 145/195/72 143/196/72 144/197/72 146/198/72
f 143/196/73 141/199/73 142/200/73 144/197/73
f 152/201/74 137/202/74 138/203/74 150/204/74
f 145/205/75 147/206/75 141/199/75 143/196/75
f 151/207/76 150/208/76 138/194/76 140/193/76
f 146/209/77 157/210/77 160/211/77 148/212/77
f 149/213/75 152/214/75 147/206/75 145/205/75
f 141/199/73 154/215/73 153/216/73 142/200/73
f 149/217/72 145/195/72 146/198/72 151/218/72
f 139/219/72 149/217/72 151/218/72 140/220/72
f 139/192/75 137/191/75 152/214/75 149/213/75
f 146/221/78 148/222/78 150/208/78 151/207/78
f 147/223/74 152/201/74 150/204/74 148/224/74
f 154/215/74 155/225/74 156/226/74 153/216/74
f 148/224/71 156/226/71 155/225/71 147/223/71
f 147/206/75 155/227/75 154/215/75 141/199/75
f 144/228/79 158/229/79 157/230/79 146/231/79
f 165/232/80 176/233/80 178/234/80 164/235/80
f 153/216/81 161/236/81 159/237/81 142/200/81
f 142/200/81 159/237/81 158/238/81 144/197/81
f 156/239/82 162/240/82 161/241/82 153/242/82
f 148/212/77 160/211/77 162/243/77 156/244/77
f 159/237/83 169/245/83 167/246/83 158/238/83
f 161/236/83 170/247/83 169/245/83 159/237/83
f 166/248/84 168/249/84 164/235/84 163/250/84
f 162/240/74 172/251/74 165/252/74 171/253/74 170/254/74 161/241/74
f 172/251/85 175/255/85 176/256/85 165/252/85
f 168/249/84 171/257/84 165/232/84 164/235/84
f 166/248/86 167/246/86 169/245/86 168/249/86
f 168/249/86 169/245/86 170/247/86 171/257/86
f 158/229/72 167/258/72 166/259/72 163/260/72 174/261/72 157/230/72
f 174/261/87 186/262/87 181/263/87 157/230/87
f 172/264/88 185/265/88 184/266/88 173/267/88
f 180/268/89 178/234/89 176/233/89 175/269/89
f 179/270/89 177/271/89 178/234/89 180/268/89
f 173/272/90 180/268/90 175/269/90 172/273/90
f 164/235/80 178/234/80 177/271/80 163/250/80
f 174/274/90 179/270/90 180/268/90 173/272/90
f 163/260/91 177/275/91 179/276/91 174/261/91
f 181/263/92 186/262/92 184/266/92 182/277/92
f 182/277/92 184/266/92 185/265/92 183/278/92
f 162/240/93 183/278/93 185/265/93 172/251/93
f 157/210/94 181/279/94 182/280/94 160/211/94
f 173/267/88 184/266/88 186/262/88 174/281/88
f 160/211/94 182/280/94 183/282/94 162/243/94
