# Blender v2.80 (sub 35) OBJ File: 'Tempel .blend'
# www.blender.org
mtllib Seiten.mtl
o Cube
v 1.375187 0.011421 -1.000000
v 1.375187 0.011421 1.000000
v 1.267590 0.011421 -0.500000
v 0.677064 -0.001327 1.000000
v -0.624813 -0.821300 1.000000
v -0.624813 -0.621852 1.000000
v -0.172241 -0.599997 1.000000
v -0.172241 -0.403187 1.000000
v 0.260875 -0.384409 1.000000
v 0.260875 -0.198424 1.000000
v 0.677064 -0.180305 1.000000
v 0.677064 -0.180305 -1.000000
v 0.260875 -0.198424 -1.000000
v 0.260875 -0.384409 -1.000000
v -0.172241 -0.403187 -1.000000
v -0.172241 -0.599997 -1.000000
v -0.624813 -0.621852 -1.000000
v -0.624813 -0.821300 -1.000000
v 0.677064 -0.001327 -1.000000
v 1.247642 0.011421 0.000000
v 1.267590 0.011421 0.500000
v -0.732410 -0.821300 0.500000
v -0.752358 -0.821300 0.000000
v -0.732410 -0.821300 -0.500000
v -0.732410 -0.621852 0.500000
v -0.752358 -0.621852 0.000000
v -0.732410 -0.621852 -0.500000
v -0.279838 -0.599997 0.500000
v -0.299786 -0.599997 0.000000
v -0.279838 -0.599997 -0.500000
v -0.279838 -0.403187 0.500000
v -0.299786 -0.403187 0.000000
v -0.279838 -0.403187 -0.500000
v 0.153278 -0.384409 0.500000
v 0.133331 -0.384409 0.000000
v 0.153278 -0.384409 -0.500000
v 0.153278 -0.198424 0.500000
v 0.133331 -0.198424 0.000000
v 0.153278 -0.198424 -0.500000
v 0.569467 -0.180305 0.500000
v 0.549520 -0.180305 0.000000
v 0.569467 -0.180305 -0.500000
v 0.569467 -0.001327 0.500000
v 0.549520 -0.001327 0.000000
v 0.569467 -0.001327 -0.500000
vt 0.971290 0.181583
vt 0.725311 0.191007
vt 0.749453 0.014001
vt 0.999914 0.000086
vt 0.658173 0.543157
vt 0.722507 0.538854
vt 0.745088 0.720646
vt 0.679068 0.728450
vt 0.000086 0.513886
vt 0.068840 0.512763
vt 0.081125 0.688281
vt 0.010190 0.692790
vt 0.224233 0.527607
vt 0.238312 0.708883
vt 0.293415 0.525169
vt 0.309188 0.703068
vt 0.444679 0.537141
vt 0.461999 0.720632
vt 0.510922 0.533769
vt 0.529856 0.713924
vt 0.542728 0.015779
vt 0.687898 0.005839
vt 0.662995 0.185435
vt 0.517855 0.189719
vt 0.656102 0.362950
vt 0.509478 0.360316
vt 0.479969 0.006879
vt 0.453957 0.183434
vt 0.444993 0.358736
vt 0.331378 0.015336
vt 0.304904 0.186138
vt 0.294381 0.354096
vt 0.266129 0.005244
vt 0.238395 0.178761
vt 0.227084 0.351518
vt 0.112986 0.011886
vt 0.085333 0.179619
vt 0.071607 0.344385
vt 0.046741 0.001190
vt 0.019313 0.171061
vt 0.003581 0.340571
vt 0.718903 0.363737
vt 0.999914 0.735176
vt 0.971058 0.550458
vt 0.968654 0.365361
vn -0.0183 0.9998 0.0039
vn -0.9776 0.0000 -0.2104
vn -0.0482 0.9988 -0.0104
vn -0.0433 0.9990 -0.0093
vn -0.0435 0.9990 -0.0094
vn -0.0435 0.9990 0.0094
vn -0.0435 0.9991 0.0017
vn -0.0435 0.9991 -0.0017
vn -0.9776 0.0000 0.2104
vn -0.9992 0.0000 0.0399
vn -0.9992 0.0000 -0.0399
vn -0.0433 0.9990 0.0093
vn -0.0433 0.9991 0.0017
vn -0.0433 0.9991 -0.0017
vn -0.0482 0.9988 0.0104
vn -0.0482 0.9988 0.0019
vn -0.0482 0.9988 -0.0019
vn -0.0183 0.9998 -0.0039
vn -0.0183 0.9998 -0.0007
vn -0.0183 0.9998 0.0007
usemtl Material
s off
f 21/1/1 43/2/1 4/3/1 2/4/1
f 42/5/2 45/6/2 19/7/2 12/8/2
f 24/9/2 27/10/2 17/11/2 18/12/2
f 27/10/3 30/13/3 16/14/3 17/11/3
f 30/13/2 33/15/2 15/16/2 16/14/2
f 33/15/4 36/17/4 14/18/4 15/16/4
f 36/17/2 39/19/2 13/20/2 14/18/2
f 39/19/5 42/5/5 12/8/5 13/20/5
f 10/21/6 11/22/6 40/23/6 37/24/6
f 37/24/7 40/23/7 41/25/7 38/26/7
f 38/26/8 41/25/8 42/5/8 39/19/8
f 9/27/9 10/21/9 37/24/9 34/28/9
f 34/28/10 37/24/10 38/26/10 35/29/10
f 35/29/11 38/26/11 39/19/11 36/17/11
f 8/30/12 9/27/12 34/28/12 31/31/12
f 31/31/13 34/28/13 35/29/13 32/32/13
f 32/32/14 35/29/14 36/17/14 33/15/14
f 7/33/9 8/30/9 31/31/9 28/34/9
f 28/34/10 31/31/10 32/32/10 29/35/10
f 29/35/11 32/32/11 33/15/11 30/13/11
f 6/36/15 7/33/15 28/34/15 25/37/15
f 25/37/16 28/34/16 29/35/16 26/38/16
f 26/38/17 29/35/17 30/13/17 27/10/17
f 5/39/9 6/36/9 25/37/9 22/40/9
f 22/40/10 25/37/10 26/38/10 23/41/10
f 23/41/11 26/38/11 27/10/11 24/9/11
f 11/22/9 4/3/9 43/2/9 40/23/9
f 40/23/10 43/2/10 44/42/10 41/25/10
f 41/25/11 44/42/11 45/6/11 42/5/11
f 1/43/18 19/7/18 45/6/18 3/44/18
f 3/44/19 45/6/19 44/42/19 20/45/19
f 20/45/20 44/42/20 43/2/20 21/1/20
