# Blender v2.79 (sub 0) OBJ File: 'untitled.blend'
# www.blender.org
mtllib Schlüssel.mtl
o Cone
v 0.000000 0.775577 -1.000000
v 0.866025 0.775577 -0.500000
v 0.866025 0.775577 0.500000
v -0.000000 0.775577 1.000000
v 0.000000 1.779199 0.000000
v -0.866025 0.775577 0.500000
v -0.866025 0.775577 -0.500000
v 0.000000 0.775577 -1.158681
v 1.003447 0.775577 -0.579341
v 1.003447 0.775577 0.579341
v -0.000000 0.775577 1.158681
v -1.003447 0.775577 0.579340
v -1.003447 0.775577 -0.579340
v 0.000000 0.495090 -1.158681
v 1.003447 0.495090 -0.579341
v 1.003447 0.495090 0.579341
v -0.000000 0.495090 1.158681
v -1.003447 0.495090 0.579340
v -1.003447 0.495090 -0.579340
v -0.000000 0.240129 -0.604667
v 0.523657 0.240129 -0.302333
v 0.523657 0.240129 0.302334
v -0.000000 0.240129 0.604667
v -0.523657 0.240129 0.302333
v -0.523657 0.240129 -0.302333
vt 0.167503 0.426132
vt 0.099392 0.738361
vt 0.028815 0.426680
vt 0.314754 0.974466
vt 0.394498 0.860995
vt 0.418660 0.724426
vt 0.382690 0.590482
vt 0.293364 0.484391
vt 0.488895 0.424863
vt 0.350206 0.425411
vt 0.339127 0.406395
vt 0.499823 0.405761
vt 0.178432 0.407030
vt 0.178114 0.326567
vt 0.338809 0.325933
vt 0.649590 0.424228
vt 0.510902 0.424776
vt 0.660518 0.405126
vt 0.328199 0.425498
vt 0.189511 0.426045
vt 0.017736 0.407665
vt 0.810286 0.423594
vt 0.671597 0.424141
vt 0.821214 0.404491
vt 0.970981 0.422959
vt 0.832293 0.423507
vt 0.981910 0.403857
vt 0.499505 0.325298
vt 0.376837 0.226901
vt 0.460697 0.226570
vt 0.660201 0.324663
vt 0.820896 0.324028
vt 0.981592 0.323394
vt 0.017418 0.327202
vt 0.984427 0.151875
vt 0.942784 0.224666
vt 0.858924 0.224997
vt 0.816707 0.152537
vt 0.858350 0.079746
vt 0.942210 0.079415
vt 0.698228 0.225632
vt 0.782088 0.225300
vt 0.055445 0.228171
vt 0.139306 0.227839
vt 0.216141 0.227536
vt 0.300001 0.227205
vt 0.537532 0.226266
vt 0.621392 0.225935
vn 0.3785 0.6533 -0.6557
vn 0.7571 0.6533 0.0000
vn 0.3785 0.6533 0.6557
vn -0.3785 0.6533 0.6557
vn -0.7571 0.6533 0.0000
vn -0.3785 0.6533 -0.6557
vn 0.0000 1.0000 0.0000
vn -0.5000 0.0000 -0.8660
vn -0.4693 -0.8831 0.0000
vn -0.5000 0.0000 0.8660
vn 1.0000 0.0000 0.0000
vn -1.0000 0.0000 0.0000
vn 0.5000 0.0000 0.8660
vn 0.5000 0.0000 -0.8660
vn 0.0000 -1.0000 -0.0000
vn 0.2346 -0.8831 0.4064
vn 0.2346 -0.8831 -0.4064
vn -0.2346 -0.8831 -0.4064
vn -0.2346 -0.8831 0.4064
vn 0.4693 -0.8831 0.0000
usemtl None
s off
f 1/1/1 5/2/1 2/3/1
f 2/4/2 5/2/2 3/5/2
f 3/5/3 5/2/3 4/6/3
f 4/6/4 5/2/4 6/7/4
f 6/7/5 5/2/5 7/8/5
f 7/8/6 5/2/6 1/1/6
f 6/9/7 7/10/7 13/11/7 12/12/7
f 13/11/8 8/13/8 14/14/8 19/15/8
f 4/16/7 6/17/7 12/12/7 11/18/7
f 7/19/7 1/20/7 8/13/7 13/11/7
f 1/1/7 2/3/7 9/21/7 8/13/7
f 3/22/7 4/23/7 11/18/7 10/24/7
f 2/25/7 3/26/7 10/24/7 9/27/7
f 18/28/9 19/15/9 25/29/9 24/30/9
f 11/18/10 12/12/10 18/28/10 17/31/10
f 9/27/11 10/24/11 16/32/11 15/33/11
f 12/12/12 13/11/12 19/15/12 18/28/12
f 10/24/13 11/18/13 17/31/13 16/32/13
f 8/13/14 9/21/14 15/34/14 14/14/14
f 20/35/15 21/36/15 22/37/15 23/38/15 24/39/15 25/40/15
f 16/32/16 17/31/16 23/41/16 22/42/16
f 14/14/17 15/34/17 21/43/17 20/44/17
f 19/15/18 14/14/18 20/45/18 25/46/18
f 17/31/19 18/28/19 24/47/19 23/48/19
f 15/33/20 16/32/20 22/37/20 21/36/20
