# File produced by Open Asset Import Library (http://www.assimp.sf.net)
# (assimp v3.1.193236683)

mtllib Untitled.mtl

# 97 vertex positions
v  -1.30458 -0.0161219 -1.34461
v  -1.34727 -0.0161219 -1.36926
v  -1.34727 23.6125 -1.36926
v  -1.30458 23.6125 -1.34461
v  -1.30458 -0.0161219 -1.29532
v  -1.30458 23.6125 -1.29532
v  -1.34727 -0.0161219 -1.27067
v  -1.34727 23.6125 -1.27067
v  -1.38996 -0.0161219 -1.29532
v  -1.38996 23.6125 -1.29532
v  -1.38996 23.6125 -1.34461
v  -1.38996 -0.0161219 -1.34461
v  -1.30458 -0.0161219 1.31542
v  -1.34727 -0.0161219 1.29077
v  -1.34727 23.6125 1.29077
v  -1.30458 23.6125 1.31542
v  -1.30458 -0.0161219 1.36471
v  -1.30458 23.6125 1.36471
v  -1.34727 -0.0161219 1.38936
v  -1.34727 23.6125 1.38936
v  -1.38996 -0.0161219 1.36471
v  -1.38996 23.6125 1.36471
v  -1.38996 23.6125 1.31542
v  -1.38996 -0.0161219 1.31542
v  0.782767 0.156463 1.61678
v  0.782767 0.156463 1.54581
v  0.669101 0.105986 1.54581
v  0.669101 0.105986 1.61678
v  0.603184 -0.105986 1.47639
v  0.563909 -0.105986 1.54581
v  0.097334 -0.105986 1.54581
v  0 -0.286545 1.11905
v  0 -0.286545 0.472503
v  -1.54581 -0.105986 1.54488
v  -1.54581 0.105986 1.54488
v  -1.54581 0.105986 -1.54581
v  -1.54581 -0.105986 -1.54581
v  1.54581 -0.105986 -1.54581
v  1.54581 0.105986 -1.54581
v  1.54581 0.105986 1.54581
v  1.54581 -0.105986 1.54581
v  0 -0.286545 -1.54581
v  0 -0.0745764 -1.54581
v  0.723443 0.156463 -1.54581
v  0.74371 -0.0555096 -1.54581
v  -0.889434 0.140358 -1.54581
v  -0.870086 -0.0716143 -1.54581
v  -0.889896 -0.105986 1.54581
v  -0.990659 -0.0716143 1.54488
v  0.596869 0.105986 1.47566
v  0 -0.0745764 0.441254
v  0 -0.0745764 1.11905
v  0.097334 0.105986 1.54581
v  0.556358 0.105986 1.54581
v  -0.097334 -0.105986 1.54581
v  -0.097334 0.105986 1.54581
v  -0.976186 0.140358 1.54488
v  0.794043 -0.0555096 1.54581
v  0.676651 -0.105986 1.54581
v  -0.893332 0.0239172 1.54581
v  -0.952381 0.13564 1.54581
v  -0.838625 0.105986 1.54581
v  -0.859683 0.105986 1.50163
v  1.39922 -0.0161219 1.36074
v  1.35654 -0.0161219 1.33609
v  1.35654 23.6125 1.33609
v  1.39922 23.6125 1.36074
v  1.39922 -0.0161219 1.41003
v  1.39922 23.6125 1.41003
v  1.35654 -0.0161219 1.43468
v  1.35654 23.6125 1.43468
v  1.31385 -0.0161219 1.41003
v  1.31385 23.6125 1.41003
v  1.31385 23.6125 1.36074
v  1.31385 -0.0161219 1.36074
v  1.39922 -0.0161219 -1.34461
v  1.35654 -0.0161219 -1.36926
v  1.35654 23.6125 -1.36926
v  1.39922 23.6125 -1.34461
v  1.39922 -0.0161219 -1.29532
v  1.39922 23.6125 -1.29532
v  1.35654 -0.0161219 -1.27067
v  1.35654 23.6125 -1.27067
v  1.31385 -0.0161219 -1.29532
v  1.31385 23.6125 -1.29532
v  1.31385 23.6125 -1.34461
v  1.31385 -0.0161219 -1.34461
v  0.563909 -0.105986 1.61678
v  0.556358 0.105986 1.61678
v  0.097334 0.105986 1.61678
v  0.097334 -0.105986 1.61678
v  -1.54581 -0.105986 1.60031
v  -0.990659 -0.0716143 1.60031
v  0.676651 -0.105986 1.61678
v  0.794043 -0.0555096 1.61678
v  -0.976186 0.140358 1.60031
v  -1.54581 0.105986 1.60031

# 180 UV coordinates
vt 0.481988 0.809663 0
vt 0.422766 0.809663 0
vt 0.422766 0.691218 0
vt 0.481988 0.691218 0
vt 0.541211 0.809663 0
vt 0.541211 0.691218 0
vt 0.600434 0.809663 0
vt 0.600434 0.691218 0
vt 0.659657 0.809663 0
vt 0.659657 0.691218 0
vt 0.570822 0.63993 0
vt 0.600434 0.588642 0
vt 0.659657 0.588642 0
vt 0.689267 0.63993 0
vt 0.363543 0.809663 0
vt 0.304321 0.809663 0
vt 0.304321 0.691218 0
vt 0.363543 0.691218 0
vt 0.600434 0.91224 0
vt 0.659657 0.91224 0
vt 0.689267 0.860951 0
vt 0.570822 0.860951 0
vt 0.483485 0.810864 0
vt 0.424262 0.810864 0
vt 0.424262 0.692419 0
vt 0.483485 0.692419 0
vt 0.542707 0.810864 0
vt 0.542707 0.692419 0
vt 0.60193 0.810864 0
vt 0.60193 0.692419 0
vt 0.661152 0.810864 0
vt 0.661153 0.692419 0
vt 0.572318 0.641132 0
vt 0.60193 0.589843 0
vt 0.661152 0.589844 0
vt 0.690763 0.641132 0
vt 0.36504 0.810864 0
vt 0.305817 0.810865 0
vt 0.305817 0.692419 0
vt 0.36504 0.692419 0
vt 0.60193 0.913441 0
vt 0.661152 0.913441 0
vt 0.690763 0.862153 0
vt 0.572318 0.862153 0
vt 0.91474 0.821898 0
vt 0.91474 0.826731 0
vt 0.907001 0.826731 0
vt 0.907001 0.821898 0
vt 0.024553 0.174154 0
vt 0.017639 0.194374 0
vt 0.037254 0.285638 0
vt 0.114437 0.291879 0
vt 0.206974 0.287682 0
vt 0.088385 0.535505 0
vt 0.088783 0.543309 0
vt 0.535781 0.516667 0
vt 0.535384 0.508862 0
vt 0.533362 0.044721 0
vt 0.534067 0.036394 0
vt 0.056616 9.3e-05 0
vt 0.05591 0.008419 0
vt 0.531583 0.278581 0
vt 0.535635 0.278597 0
vt 0.536475 0.169174 0
vt 0.532439 0.166068 0
vt 0.53939 0.508831 0
vt 0.537796 0.41107 0
vt 0.533722 0.408199 0
vt 0.068497 0.436219 0
vt 0.071552 0.451472 0
vt 0.989309 0.187978 0
vt 0.834584 0.277232 0
vt 0.935941 0.2772 0
vt 0.999761 0.262678 0
vt 0.999795 0.19404 0
vt 0.045221 0.32406 0
vt 0.001662 0.312088 0
vt 9.3e-05 0.312352 0
vt 0.044365 0.324746 0
vt 0.035705 0.285116 0
vt 0.999907 0.507631 0
vt 0.999764 0.422697 0
vt 0.999809 0.177182 0
vt 0.999821 0.160182 0
vt 0.028191 0.110812 0
vt 0.022511 0.175823 0
vt 0.015787 0.194706 0
vt 0.022138 0.128638 0
vt 0.023863 0.126801 0
vt 0.053839 0.007877 0
vt 0.021792 0.12626 0
vt 0.06871 0.44179 0
vt 0.078006 0.488164 0
vt 0.078389 0.49007 0
vt 0.057143 0.385917 0
vt 0.020091 0.417879 0
vt 0.993146 0.405337 0
vt 0.999732 0.402189 0
vt 0.999601 0.29164 0
vt 0.483367 0.810865 0
vt 0.424141 0.810865 0
vt 0.424146 0.692419 0
vt 0.483367 0.692419 0
vt 0.542588 0.810864 0
vt 0.542588 0.692419 0
vt 0.601814 0.810865 0
vt 0.601814 0.692419 0
vt 0.661031 0.810865 0
vt 0.661031 0.692419 0
vt 0.572197 0.641131 0
vt 0.601814 0.589843 0
vt 0.661031 0.589843 0
vt 0.690648 0.641131 0
vt 0.36492 0.810865 0
vt 0.305699 0.810865 0
vt 0.305699 0.692419 0
vt 0.36492 0.692419 0
vt 0.690648 0.862154 0
vt 0.661031 0.913442 0
vt 0.601814 0.913442 0
vt 0.572197 0.862154 0
vt 0.482085 0.811924 0
vt 0.422863 0.811924 0
vt 0.422863 0.693479 0
vt 0.482085 0.693479 0
vt 0.541306 0.811924 0
vt 0.541306 0.693479 0
vt 0.60053 0.811924 0
vt 0.600529 0.693479 0
vt 0.65975 0.811924 0
vt 0.65975 0.693479 0
vt 0.570918 0.642196 0
vt 0.600529 0.590904 0
vt 0.65975 0.590904 0
vt 0.689361 0.642196 0
vt 0.364983 0.809487 0
vt 0.305761 0.809486 0
vt 0.305761 0.691042 0
vt 0.364983 0.691042 0
vt 0.36364 0.811924 0
vt 0.36364 0.693479 0
vt 0.600529 0.914504 0
vt 0.659751 0.914504 0
vt 0.689361 0.863211 0
vt 0.570918 0.863211 0
vt 0.950903 0.678432 0
vt 0.95041 0.678951 0
vt 0.92065 0.678951 0
vt 0.920658 0.678432 0
vt 0.53743 0.044787 0
vt 0.999907 0.046057 0
vt 0.955751 0.683032 0
vt 0.955258 0.683552 0
vt 0.999758 0.419148 0
vt 0.740644 0.675249 0
vt 0.740532 0.673443 0
vt 0.758621 0.672322 0
vt 0.758732 0.674128 0
vt 0.907516 0.821772 0
vt 0.915508 0.821772 0
vt 0.920658 0.673831 0
vt 0.950903 0.673831 0
vt 0.890897 0.678638 0
vt 0.890905 0.678119 0
vt 0.905824 0.817086 0
vt 0.906339 0.81696 0
vt 0.95041 0.683553 0
vt 0.92065 0.683553 0
vt 0.9163 0.826594 0
vt 0.915531 0.82672 0
vt 0.907516 0.816941 0
vt 0.915508 0.816941 0
vt 0.765774 0.674164 0
vt 0.740667 0.675564 0
vt 0.76591 0.676607 0
vt 0.740803 0.678008 0
vt 0.722592 0.676869 0
vt 0.72257 0.676553 0
vt 0.758869 0.647212 0
vt 0.76591 0.647247 0

# 36 vertex normals
vn 0.5 0 -0.866
vn 1 0 0
vn 0.5 0 0.866
vn -0.5 0 0.866
vn 0 1 0
vn -1 0 0
vn -0.5 0 -0.866
vn -0.4059 0.9139 0
vn 0.1946 -0.9712 0.1375
vn 0 0 -1
vn -0.2302 -0.9731 -0.0078
vn -0.1996 0.9708 -0.1333
vn 0.975 0 0.2224
vn -0.975 0 0.2224
vn -0.056 0.9984 -0.0008
vn -0.2943 0.9557 0.0034
vn -0.0648 -0.9979 0.0005
vn 0.8678 0.0292 0.4961
vn -0.6916 -0.0214 0.722
vn 0 0 1
vn -0.0122 -0.0013 0.9999
vn -0.1252 -0.9802 0.1535
vn 0.1133 0.4346 0.8935
vn 0.1352 0.9805 -0.1428
vn 0 -1 0
vn 0.0635 0.998 -0.0006
vn 0.9994 0.0356 0
vn 0.2883 -0.9575 -0.0027
vn 0.0558 -0.9984 0.0011
vn 0.2283 0.9736 0.0055
vn 0.0618 -0.9981 0
vn -0.9994 -0.0356 0
vn 0.9986 0.0531 0
vn 0.395 -0.9187 0
vn -0.0602 0.9982 0
vn 0.9977 -0.0681 0

# Mesh 'Cylinder.002_Cylinder.006_Cylinder.002_Cylinder.006' with 174 faces
g Cylinder.002_Cylinder.006_Cylinder.002_Cylinder.006
usemtl Material
f  1/1/1 2/2/1 3/3/1
f  3/3/1 4/4/1 1/1/1
f  5/5/2 1/1/2 4/4/2
f  4/4/2 6/6/2 5/5/2
f  7/7/3 5/5/3 6/6/3
f  6/6/3 8/8/3 7/7/3
f  9/9/4 7/7/4 8/8/4
f  8/8/4 10/10/4 9/9/4
f  6/11/5 4/12/5 3/13/5
f  6/11/5 3/13/5 11/14/5
f  6/11/5 11/14/5 10/10/5
f  10/10/5 8/8/5 6/11/5
f  12/15/6 9/16/6 10/17/6
f  10/17/6 11/18/6 12/15/6
f  2/2/7 12/15/7 11/18/7
f  11/18/7 3/3/7 2/2/7
f  1/19/5 2/20/5 12/21/5
f  1/19/5 12/21/5 9/9/5
f  1/19/5 9/9/5 7/7/5
f  7/7/5 5/22/5 1/19/5
f  13/23/1 14/24/1 15/25/1
f  15/25/1 16/26/1 13/23/1
f  17/27/2 13/23/2 16/26/2
f  16/26/2 18/28/2 17/27/2
f  19/29/3 17/27/3 18/28/3
f  18/28/3 20/30/3 19/29/3
f  21/31/4 19/29/4 20/30/4
f  20/30/4 22/32/4 21/31/4
f  18/33/5 16/34/5 15/35/5
f  18/33/5 15/35/5 23/36/5
f  18/33/5 23/36/5 22/32/5
f  22/32/5 20/30/5 18/33/5
f  24/37/6 21/38/6 22/39/6
f  22/39/6 23/40/6 24/37/6
f  14/24/7 24/37/7 23/40/7
f  23/40/7 15/25/7 14/24/7
f  13/41/5 14/42/5 24/43/5
f  13/41/5 24/43/5 21/31/5
f  13/41/5 21/31/5 19/29/5
f  19/29/5 17/44/5 13/41/5
f  25/45/8 26/46/8 27/47/8
f  27/47/8 28/48/8 25/45/8
f  29/49/9 30/50/9 31/51/9
f  29/49/9 31/51/9 32/52/9
f  32/52/9 33/53/9 29/49/9
f  34/54/6 35/55/6 36/56/6
f  36/56/6 37/57/6 34/54/6
f  38/58/2 39/59/2 40/60/2
f  40/60/2 41/61/2 38/58/2
f  42/62/10 43/63/10 44/64/10
f  44/64/10 45/65/10 42/62/10
f  37/57/10 36/66/10 46/67/10
f  46/67/10 47/68/10 37/57/10
f  47/68/11 42/62/11 33/53/11
f  47/68/11 33/53/11 48/69/11
f  48/69/11 49/70/11 47/68/11
f  50/71/12 51/72/12 52/73/12
f  50/71/12 52/73/12 53/74/12
f  53/74/12 54/75/12 50/71/12
f  55/76/13 32/77/13 52/78/13
f  52/78/13 56/79/13 55/76/13
f  32/77/14 31/51/14 53/80/14
f  53/80/14 52/78/14 32/77/14
f  46/67/15 36/66/15 35/81/15
f  35/81/15 57/82/15 46/67/15
f  44/64/16 43/63/16 51/72/16
f  44/64/16 51/72/16 50/71/16
f  44/64/16 50/71/16 27/83/16
f  27/83/16 26/84/16 44/64/16
f  45/65/17 38/58/17 41/61/17
f  41/61/17 58/85/17 45/65/17
f  50/86/18 54/87/18 30/50/18
f  30/50/18 29/49/18 50/86/18
f  27/88/19 50/86/19 29/49/19
f  29/49/19 59/89/19 27/88/19
f  41/61/20 40/90/20 26/91/20
f  26/91/20 58/85/20 41/61/20
f  60/92/21 61/93/21 57/94/21
f  60/92/21 57/94/21 49/70/21
f  49/70/21 48/69/21 60/92/21
f  55/76/20 56/79/20 62/95/20
f  55/76/20 62/95/20 60/92/20
f  60/92/20 48/69/20 55/76/20
f  48/69/22 33/53/22 32/52/22
f  32/52/22 55/76/22 48/69/22
f  60/92/23 62/95/23 63/96/23
f  63/96/23 61/93/23 60/92/23
f  63/97/24 62/98/24 56/99/24
f  63/97/24 56/99/24 52/73/24
f  52/73/24 51/72/24 63/97/24
f  64/100/1 65/101/1 66/102/1
f  66/102/1 67/103/1 64/100/1
f  68/104/2 64/100/2 67/103/2
f  67/103/2 69/105/2 68/104/2
f  70/106/3 68/104/3 69/105/3
f  69/105/3 71/107/3 70/106/3
f  72/108/4 70/106/4 71/107/4
f  71/107/4 73/109/4 72/108/4
f  69/110/5 67/111/5 66/112/5
f  69/110/5 66/112/5 74/113/5
f  69/110/5 74/113/5 73/109/5
f  73/109/5 71/107/5 69/110/5
f  75/114/6 72/115/6 73/116/6
f  73/116/6 74/117/6 75/114/6
f  65/101/7 75/114/7 74/117/7
f  74/117/7 66/102/7 65/101/7
f  75/118/25 65/119/25 64/120/25
f  75/118/25 64/120/25 68/121/25
f  75/118/25 68/121/25 70/106/25
f  70/106/25 72/108/25 75/118/25
f  76/122/1 77/123/1 78/124/1
f  78/124/1 79/125/1 76/122/1
f  80/126/2 76/122/2 79/125/2
f  79/125/2 81/127/2 80/126/2
f  82/128/3 80/126/3 81/127/3
f  81/127/3 83/129/3 82/128/3
f  84/130/4 82/128/4 83/129/4
f  83/129/4 85/131/4 84/130/4
f  81/132/5 79/133/5 78/134/5
f  81/132/5 78/134/5 86/135/5
f  81/132/5 86/135/5 85/131/5
f  85/131/5 83/129/5 81/132/5
f  87/136/6 84/137/6 85/138/6
f  85/138/6 86/139/6 87/136/6
f  77/123/7 87/140/7 86/141/7
f  86/141/7 78/124/7 77/123/7
f  76/142/5 77/143/5 87/144/5
f  76/142/5 87/144/5 84/130/5
f  76/142/5 84/130/5 82/128/5
f  82/128/5 80/145/5 76/142/5
f  88/146/20 89/147/20 90/148/20
f  90/148/20 91/149/20 88/146/20
f  39/150/26 44/64/26 26/84/26
f  26/84/26 40/151/26 39/150/26
f  88/146/27 30/152/27 54/153/27
f  54/153/27 89/147/27 88/146/27
f  38/58/10 45/65/10 44/64/10
f  44/64/10 39/150/10 38/58/10
f  42/62/28 45/65/28 58/85/28
f  42/62/28 58/85/28 59/89/28
f  42/62/28 59/89/28 29/49/28
f  29/49/28 33/53/28 42/62/28
f  42/62/10 47/68/10 46/67/10
f  46/67/10 43/63/10 42/62/10
f  37/57/29 47/68/29 49/70/29
f  49/70/29 34/54/29 37/57/29
f  43/63/30 46/67/30 57/82/30
f  43/63/30 57/82/30 61/154/30
f  43/63/30 61/154/30 63/97/30
f  63/97/30 51/72/30 43/63/30
f  92/155/31 34/156/31 49/157/31
f  49/157/31 93/158/31 92/155/31
f  94/159/20 95/160/20 25/45/20
f  25/45/20 28/48/20 94/159/20
f  91/149/25 31/161/25 30/162/25
f  30/162/25 88/146/25 91/149/25
f  90/148/6 53/163/6 31/164/6
f  31/164/6 91/149/6 90/148/6
f  28/48/32 27/165/32 59/166/32
f  59/166/32 94/159/32 28/48/32
f  89/147/5 54/167/5 53/168/5
f  53/168/5 90/148/5 89/147/5
f  95/160/33 58/169/33 26/170/33
f  26/170/33 25/45/33 95/160/33
f  94/159/34 59/171/34 58/172/34
f  58/172/34 95/160/34 94/159/34
f  92/155/20 93/158/20 96/173/20
f  96/173/20 97/174/20 92/155/20
f  96/173/35 57/175/35 35/176/35
f  35/176/35 97/174/35 96/173/35
f  97/174/6 35/177/6 34/178/6
f  34/178/6 92/155/6 97/174/6
f  93/158/36 49/179/36 57/180/36
f  57/180/36 96/173/36 93/158/36

