# Blender v2.80 (sub 35) OBJ File: 'Tempel .blend'
# www.blender.org
mtllib Endteil.mtl
o Cube.002_Cube.004
v 3.863897 -0.723638 3.936800
v 4.444588 0.134187 3.560719
v 3.863897 -0.723638 -3.936800
v 4.444588 0.134187 -3.560719
v 16.021177 -0.723638 3.936800
v 15.440487 0.134187 3.560719
v 16.021177 -0.723638 -3.936800
v 15.440487 0.134187 -3.560719
v 3.863897 -2.593091 -3.936800
v 3.863897 -2.593091 3.936800
v 16.021177 -2.593091 -3.936800
v 16.021177 -2.593091 3.936800
vt 0.772286 0.343189
vt 0.662181 0.442262
vt 0.557737 0.337819
vt 0.656811 0.227714
vt 0.458664 0.227714
vt 0.453294 0.442262
vt 0.343189 0.343189
vt 0.343189 0.541336
vt 0.557737 0.546706
vt 0.458664 0.656811
vt 0.656811 0.656811
vt 0.772286 0.541336
vt 0.999900 0.768950
vt 0.884425 0.884425
vt 0.000100 0.884425
vt 0.115575 0.768950
vt 0.231050 0.884425
vt 0.115575 0.999900
vt 0.115575 0.115575
vt 0.231050 0.000100
vt 0.884425 0.000100
vt 0.999900 0.115575
vn -0.8281 0.5606 0.0000
vn 0.0000 0.4015 -0.9159
vn 0.8281 0.5606 0.0000
vn 0.0000 0.4015 0.9159
vn 0.0000 0.0000 1.0000
vn 0.0000 1.0000 0.0000
vn 0.0000 -1.0000 0.0000
vn 0.0000 0.0000 -1.0000
vn -1.0000 0.0000 0.0000
vn 1.0000 0.0000 0.0000
usemtl None
s off
f 1/1/1 2/2/1 4/3/1 3/4/1
f 3/5/2 4/3/2 8/6/2 7/7/2
f 7/8/3 8/6/3 6/9/3 5/10/3
f 5/11/4 6/9/4 2/2/4 1/12/4
f 5/11/5 1/12/5 10/13/5 12/14/5
f 8/6/6 4/3/6 2/2/6 6/9/6
f 9/15/7 11/16/7 12/17/7 10/18/7
f 3/5/8 7/7/8 11/19/8 9/20/8
f 1/1/9 3/4/9 9/21/9 10/22/9
f 7/8/10 5/10/10 12/17/10 11/16/10
